<?xml version="1.0" standalone="no"?>
<!DOCTYPE svg PUBLIC "-//W3C//DTD SVG 20010904//EN"
 "http://www.w3.org/TR/2001/REC-SVG-20010904/DTD/svg10.dtd">
<svg version="1.0" xmlns="http://www.w3.org/2000/svg"
 width="500.000000pt" height="500.000000pt" viewBox="0 0 500.000000 500.000000"
 preserveAspectRatio="xMidYMid meet">
<metadata>
Created by potrace 1.14, written by Peter Selinger 2001-2017
</metadata>
<g transform="translate(0.000000,500.000000) scale(0.100000,-0.100000)"
fill="#000000" stroke="none">
<path d="M2423 4959 c-10 -3 -37 -9 -61 -12 -36 -6 -183 -46 -232 -65 -8 -3
-21 -4 -27 -3 -7 1 -13 -2 -13 -7 0 -5 -6 -9 -12 -10 -23 -1 -52 -10 -113 -33
-33 -12 -69 -24 -80 -25 -11 -2 -38 -8 -60 -14 -92 -23 -357 -4 -399 29 -6 5
-20 11 -32 15 -18 5 -20 3 -18 -21 4 -43 14 -86 23 -98 5 -5 7 -18 6 -27 -2
-10 1 -18 6 -18 5 0 9 -6 9 -13 0 -7 9 -30 21 -51 11 -21 18 -40 16 -42 -2 -3
-21 14 -41 37 l-36 42 0 -34 c-1 -31 -2 -32 -12 -14 -12 20 -18 45 -19 77 0
10 -5 20 -10 23 -9 6 -39 -17 -41 -32 -2 -21 -23 -53 -34 -53 -6 0 -38 18 -70
39 -33 22 -61 35 -62 30 -5 -12 30 -101 70 -182 26 -53 28 -66 26 -150 l-3
-91 -36 -21 c-23 -13 -35 -26 -33 -37 1 -10 -2 -18 -7 -18 -5 0 -9 -7 -9 -15
0 -14 -51 -178 -67 -215 -3 -8 -7 -19 -8 -25 -1 -5 -3 -12 -4 -15 -2 -3 -4
-13 -7 -22 -6 -27 -10 -41 -17 -58 -3 -8 -17 -53 -32 -100 -15 -47 -33 -101
-41 -121 -7 -20 -10 -39 -7 -43 4 -3 1 -6 -5 -6 -6 0 -9 -9 -7 -20 2 -11 0
-20 -6 -20 -5 0 -9 -8 -9 -18 0 -10 -3 -22 -7 -26 -4 -3 -8 -14 -9 -24 -4 -29
-42 -127 -49 -126 -4 1 -40 20 -80 44 -74 42 -96 45 -90 12 1 -9 -1 -25 -6
-34 -6 -11 -5 -18 4 -21 9 -4 9 -8 -1 -15 -22 -15 -36 -228 -22 -326 7 -44 12
-89 12 -98 -1 -10 4 -18 9 -18 6 0 8 -9 4 -19 -3 -11 -1 -22 4 -25 6 -4 8 -13
4 -21 -3 -8 1 -15 8 -15 7 0 10 -3 7 -6 -3 -3 3 -28 13 -57 22 -59 23 -71 9
-62 -6 4 -8 11 -5 16 4 5 2 9 -3 9 -5 0 -12 14 -16 32 -10 53 -23 60 -55 31
l-28 -26 34 -101 c19 -56 38 -110 43 -121 13 -29 49 -132 66 -190 8 -27 19
-58 24 -67 6 -10 10 -22 10 -27 0 -5 8 -26 17 -47 9 -22 16 -43 14 -48 -1 -5
2 -12 7 -15 4 -3 13 -22 18 -41 7 -26 16 -35 32 -36 12 -1 22 2 22 6 0 5 10 6
23 2 20 -5 21 -4 8 11 -7 9 -10 17 -5 17 4 0 3 5 -4 12 -15 15 -16 48 -1 48 5
0 7 -4 4 -10 -3 -5 -1 -10 5 -10 6 0 9 -3 7 -7 -8 -13 49 -107 70 -118 12 -6
28 -17 37 -24 9 -7 16 -11 16 -7 0 4 10 0 23 -8 22 -13 66 -27 100 -31 31 -3
40 21 20 52 -9 15 -20 30 -23 33 -4 3 -24 41 -46 85 -21 44 -42 82 -46 83 -5
2 -8 10 -8 17 0 8 -13 42 -29 77 -16 34 -27 66 -25 70 3 5 1 8 -5 8 -6 0 -15
19 -22 43 -6 23 -17 56 -24 72 -36 80 -43 103 -33 116 8 11 9 11 5 -2 -3 -9
-2 -20 3 -25 4 -5 22 -45 40 -89 39 -98 53 -131 96 -219 19 -38 34 -75 34 -83
0 -7 5 -13 12 -13 6 0 8 -3 5 -6 -3 -4 3 -18 13 -32 11 -13 20 -30 20 -37 0
-19 23 -34 56 -37 39 -3 134 12 134 21 0 4 6 8 13 8 6 1 33 8 59 16 40 13 49
13 59 1 6 -8 9 -14 6 -14 -3 0 1 -16 9 -35 8 -19 14 -36 13 -37 0 -2 5 -16 11
-33 7 -16 20 -57 30 -91 30 -104 65 -151 240 -326 l127 -126 7 -69 c8 -74 8
-134 0 -142 -3 -3 -36 -5 -75 -4 -60 1 -79 -3 -126 -27 -31 -16 -59 -33 -62
-37 -3 -5 -26 -22 -51 -38 -24 -17 -53 -37 -63 -45 -10 -8 -21 -15 -25 -16 -4
0 -27 -10 -52 -21 -25 -12 -76 -24 -115 -27 -38 -4 -83 -12 -100 -18 -34 -12
-95 -87 -95 -116 0 -20 -23 -32 -70 -37 -14 -2 -25 -4 -25 -5 0 -1 -9 -4 -20
-5 -23 -2 -161 -47 -245 -79 -89 -34 -190 -104 -260 -180 -19 -21 -53 -57 -75
-80 -22 -23 -50 -64 -62 -92 -39 -89 -86 -219 -88 -244 -1 -14 -6 -33 -10 -43
-4 -10 -3 -29 3 -43 9 -19 19 -24 49 -25 41 -1 431 -1 523 0 30 1 748 1 1595
1 847 0 1549 0 1560 0 11 0 152 0 313 -1 161 0 295 1 297 3 8 8 16 108 8 108
-4 0 -9 15 -9 33 -2 47 -26 123 -58 186 -9 17 -17 34 -17 38 -5 49 -154 218
-189 214 -3 0 -21 15 -40 33 -47 44 -96 77 -104 69 -3 -3 -6 -1 -6 6 0 7 -4 9
-10 6 -5 -3 -10 -1 -10 4 0 6 -6 11 -12 11 -17 0 -182 52 -188 59 -5 6 -20 8
-82 12 -16 1 -28 6 -28 10 0 4 -13 6 -30 4 -16 -2 -32 0 -35 6 -4 5 -15 9 -26
9 -12 0 -19 7 -19 19 0 24 -25 81 -47 106 -24 28 -66 43 -138 49 -115 11 -136
14 -150 26 -8 7 -15 9 -15 6 0 -4 -6 -1 -14 6 -161 150 -253 194 -358 173 -29
-5 -38 -4 -39 6 -2 30 0 76 7 131 6 49 11 60 42 85 108 85 312 313 312 348 0
7 6 20 13 27 6 7 13 22 14 33 1 11 11 52 23 90 12 39 22 75 23 80 2 6 6 16 10
23 5 6 6 16 3 21 -3 5 1 11 9 15 10 4 15 -1 15 -15 0 -28 97 -70 176 -76 55
-5 63 -3 73 15 6 11 17 26 24 34 15 16 41 70 39 80 -1 5 3 8 9 8 5 0 8 4 5 9
-3 5 1 14 9 21 8 7 15 19 15 27 0 8 8 27 19 41 10 15 24 44 32 65 16 46 39 69
36 38 -1 -12 -5 -21 -9 -21 -4 0 -7 -3 -6 -7 1 -5 -7 -28 -19 -53 -12 -25 -27
-61 -36 -80 -8 -20 -33 -69 -57 -110 -24 -41 -50 -88 -58 -105 -9 -16 -22 -36
-30 -44 -12 -12 -11 -16 9 -26 18 -10 32 -9 73 5 72 25 129 53 144 70 16 19
72 134 72 149 0 6 5 11 10 11 6 0 9 3 8 8 -3 11 36 112 43 112 4 0 0 -21 -8
-47 -8 -27 -17 -58 -20 -71 -3 -12 -10 -22 -15 -22 -5 0 -6 -4 -3 -10 3 -5 1
-10 -5 -10 -6 0 -9 -4 -6 -8 3 -5 -1 -20 -9 -35 -13 -24 -12 -28 6 -38 40 -21
63 -8 81 46 22 66 30 89 33 95 9 21 19 47 51 135 20 55 46 127 59 160 22 59
38 105 40 115 0 3 4 11 8 18 5 6 5 17 2 22 -3 6 -2 10 3 10 5 0 15 20 22 45
12 44 12 46 -16 68 -16 12 -33 21 -37 19 -9 -3 -6 27 8 78 3 14 8 39 11 55 9
56 10 60 16 70 3 6 4 71 2 145 -1 74 -3 147 -3 163 -1 15 -5 27 -10 27 -4 0
-7 17 -6 38 4 63 -8 66 -90 22 -40 -22 -77 -40 -82 -40 -8 0 -38 81 -48 128
-2 9 -9 31 -16 47 -7 17 -13 32 -14 35 -1 3 -5 12 -9 21 -4 9 -8 27 -10 40 -2
13 -8 37 -15 52 -6 16 -11 35 -11 43 0 8 -5 14 -11 14 -5 0 -8 4 -5 9 5 7 -4
37 -30 106 -4 11 -9 25 -10 30 -1 6 -3 13 -4 18 -1 4 -3 10 -5 15 -1 4 -4 14
-7 22 -3 8 -23 69 -43 135 -54 173 -53 172 -99 199 -23 13 -53 39 -66 57 -26
34 -117 136 -135 151 -69 57 -104 82 -125 91 -14 6 -27 11 -30 13 -3 1 -15 5
-28 9 -27 9 -25 22 11 48 22 17 29 18 42 7 12 -10 15 -10 15 4 0 15 -21 21
-60 17 -8 -1 4 16 27 39 23 22 39 40 35 40 -4 0 0 4 8 10 8 5 12 12 9 15 -4 3
-30 -10 -59 -30 -28 -19 -53 -35 -54 -35 -2 0 -3 7 -3 15 0 8 3 15 7 15 4 0
13 19 19 43 7 23 17 47 23 54 5 7 5 13 -1 17 -9 6 -71 -91 -71 -113 0 -23 -20
-10 -21 14 -1 23 -3 34 -9 53 -4 14 -18 -44 -19 -80 -1 -21 -5 -38 -11 -38 -5
0 -10 6 -10 13 0 19 -72 90 -177 177 -7 6 -15 10 -18 10 -4 0 -26 13 -49 30
-24 16 -46 26 -50 23 -3 -4 -6 -1 -6 6 0 8 -7 11 -15 7 -8 -3 -15 -1 -15 4 0
5 -10 12 -22 15 -13 4 -36 13 -53 20 -52 22 -97 35 -125 35 -15 0 -30 3 -34 8
-10 9 -288 10 -313 1z m1507 -1384 c7 -25 17 -48 22 -51 4 -3 6 -10 3 -15 -4
-5 -1 -9 5 -9 6 0 8 -5 5 -10 -4 -6 -2 -16 3 -23 5 -7 17 -37 27 -67 9 -30 24
-71 33 -90 9 -19 17 -43 19 -53 2 -10 10 -31 18 -48 9 -16 13 -34 10 -39 -8
-13 17 -13 52 1 15 6 30 10 32 10 16 -2 16 -286 1 -286 -1 0 -3 -8 -5 -18 -6
-31 -15 -32 -15 -3 0 41 -16 63 -55 76 -19 6 -35 15 -35 19 0 17 -156 45 -166
29 -3 -4 -14 -8 -26 -8 -15 0 -18 4 -13 18 4 9 9 26 11 37 2 11 8 38 14 60 12
46 14 260 3 278 -4 7 -8 17 -9 22 -1 6 -5 18 -9 28 -4 10 -3 17 4 17 6 0 11 6
11 14 0 28 32 156 40 156 4 0 13 -20 20 -45z m-2853 -42 c0 -38 3 -93 7 -123
9 -64 49 -207 67 -241 7 -13 12 -25 11 -27 -1 -1 5 -19 14 -40 16 -37 25 -91
17 -104 -2 -4 -15 3 -29 15 -14 12 -29 22 -32 23 -4 0 -15 4 -25 8 -31 14
-120 -5 -174 -36 -58 -34 -73 -50 -73 -77 0 -26 -12 -21 -16 7 -1 9 -6 31 -10
47 -10 39 -10 140 0 185 4 19 7 43 7 52 0 18 34 17 53 -2 17 -17 36 -11 36 10
0 11 4 20 10 20 5 0 9 3 9 8 -1 4 0 10 1 15 1 4 3 10 5 15 2 9 12 35 35 92 20
50 54 151 55 162 0 3 3 10 8 14 4 4 7 16 7 26 0 10 4 18 9 18 4 0 8 -30 8 -67z"/>
</g>
</svg>
